<svg width="34" height="35" viewBox="0 0 34 35" fill="none" xmlns="http://www.w3.org/2000/svg">
<path fill-rule="evenodd" clip-rule="evenodd" d="M11.7616 7.90756C9.32732 7.90756 7.35156 9.8807 7.35156 12.3176C7.35156 14.7544 9.32732 16.7276 11.7616 16.7276C14.1979 16.7276 16.1716 14.7539 16.1716 12.3176L16.1716 12.3162C16.1692 9.88256 14.1966 7.90995 11.7629 7.90756H11.7616ZM10.0182 12.3176C10.0182 11.3546 10.7988 10.5746 11.7609 10.5742C12.7234 10.5755 13.5036 11.3558 13.5049 12.3182C13.5045 13.2815 12.725 14.0609 11.7616 14.0609C10.7991 14.0609 10.0182 13.2807 10.0182 12.3176Z" fill="white"/>
<path fill-rule="evenodd" clip-rule="evenodd" d="M2.80945 3.75773C4.50192 1.94113 6.91111 0.925785 9.75167 0.925785H24.1717C27.0201 0.925785 29.4315 1.94033 31.123 3.75837C32.8047 5.56574 33.6754 8.05848 33.6717 10.8509L32.3383 10.8491H33.6717V10.8509V24.4258C33.6717 27.2175 32.7997 29.7098 31.1173 31.5168C29.4249 33.3347 27.0133 34.3491 24.1633 34.3491H9.75167C6.90521 34.3491 4.49538 33.3343 2.80392 31.5166C1.1225 29.7097 0.25 27.2177 0.25 24.4258V10.8491C0.25 8.05573 1.12672 5.56388 2.80945 3.75773ZM4.76055 5.57551C3.61412 6.80602 2.91667 8.60918 2.91667 10.8491V24.4147C3.61042 23.9056 4.46936 23.4719 5.49234 23.1443C7.76671 22.4158 10.9283 22.1785 15.1882 22.787C16.5527 22.9819 17.2925 22.64 17.9103 22.1074C18.2618 21.8044 18.5956 21.4168 18.9772 20.9295C19.0874 20.7886 19.2062 20.6333 19.3313 20.4697C19.6081 20.1077 19.9155 19.7055 20.2287 19.3326C21.19 18.1882 22.4493 17.0059 24.4362 16.3686C26.1389 15.8224 28.2562 15.7144 31.005 16.208V10.8491L31.005 10.8474C31.008 8.60643 30.3145 6.80416 29.1707 5.57486C28.0369 4.35624 26.3615 3.59245 24.1717 3.59245H9.75167C7.57223 3.59245 5.89725 4.35544 4.76055 5.57551ZM4.75608 29.7C4.22093 29.1249 3.78406 28.4245 3.47056 27.6125L3.55141 27.6485C3.8001 27.0889 4.53585 26.2507 6.30574 25.6838C8.07541 25.117 10.8027 24.8543 14.8111 25.4269C16.9466 25.7319 18.4568 25.1571 19.6515 24.1272C20.2063 23.6489 20.6694 23.0938 21.0768 22.5734C21.227 22.3816 21.3657 22.2 21.5002 22.0238L21.5008 22.0231C21.7556 21.6895 21.9957 21.3751 22.2706 21.0478C23.0593 20.1089 23.925 19.333 25.2506 18.9078C26.4987 18.5075 28.2905 18.3756 31.005 18.9225V24.4258C31.005 26.6674 30.3103 28.4701 29.1656 29.6998C28.0309 30.9186 26.355 31.6825 24.1633 31.6825H9.75167C7.56479 31.6825 5.89045 30.919 4.75608 29.7Z" fill="white"/>
</svg>
