<svg width="20" height="20" viewBox="0 0 20 20" fill="none" xmlns="http://www.w3.org/2000/svg">
<path d="M10.483 6.98948C9.85884 6.89693 9.22136 7.00354 8.66126 7.29417C8.10116 7.58479 7.64696 8.04463 7.36327 8.60827C7.07957 9.17191 6.98083 9.81065 7.08107 10.4336C7.18132 11.0566 7.47546 11.6322 7.92165 12.0784C8.36784 12.5245 8.94337 12.8187 9.56636 12.9189C10.1894 13.0192 10.8281 12.9204 11.3917 12.6367C11.9554 12.353 12.4152 11.8988 12.7058 11.3387C12.9965 10.7786 13.1031 10.1412 13.0105 9.51698C12.9161 8.88029 12.6194 8.29085 12.1643 7.83571C11.7092 7.38058 11.1197 7.0839 10.483 6.98948Z" fill="#959595"/>
<path fill-rule="evenodd" clip-rule="evenodd" d="M15 0H5C2.23858 0 0 2.23858 0 5V15C0 17.7614 2.23858 20 5 20H15C17.7614 20 20 17.7614 20 15V5C20 2.23858 17.7614 0 15 0ZM7.74012 5.51892C8.67362 5.03455 9.73608 4.85685 10.7764 5.01112C11.8375 5.16847 12.82 5.66295 13.5785 6.4215C14.3371 7.18006 14.8315 8.16247 14.9889 9.22362C15.1432 10.2639 14.9655 11.3264 14.4811 12.2599C13.9967 13.1934 13.2303 13.9504 12.2909 14.4232C11.3515 14.896 10.287 15.0606 9.24862 14.8935C8.2103 14.7265 7.25109 14.2362 6.50744 13.4926C5.76379 12.7489 5.27356 11.7897 5.10647 10.7514C4.93939 9.71306 5.10397 8.64849 5.5768 7.70909C6.04962 6.76969 6.80662 6.00329 7.74012 5.51892ZM15.5 3.5C14.9477 3.5 14.5 3.94772 14.5 4.5C14.5 5.05228 14.9477 5.5 15.5 5.5H15.51C16.0623 5.5 16.51 5.05228 16.51 4.5C16.51 3.94772 16.0623 3.5 15.51 3.5H15.5Z" fill="#959595"/>
</svg>
